<svg width="16" height="16" viewBox="0 0 16 16" fill="none" xmlns="http://www.w3.org/2000/svg">
<path fill-rule="evenodd" clip-rule="evenodd" d="M2.982 7.02295C2.19153 7.02427 1.43382 7.33887 0.874868 7.89782C0.315921 8.45676 0.00132208 9.21448 0 10.0049C0.00105767 10.7956 0.31554 11.5536 0.874515 12.1127C1.43349 12.6719 2.19136 12.9866 2.982 12.9879C3.7729 12.9872 4.53117 12.6726 5.09042 12.1134C5.64967 11.5541 5.96421 10.7958 5.965 10.0049C5.96394 9.21423 5.64929 8.45621 5.09007 7.89717C4.53085 7.33814 3.77272 7.02374 2.982 7.02295ZM2.982 12.0469C2.44103 12.0462 1.92246 11.8308 1.54003 11.4482C1.1576 11.0656 0.942529 10.5469 0.942 10.0059C0.942 8.88095 1.857 7.96595 2.982 7.96595C4.108 7.96595 5.023 8.88095 5.023 10.0059C5.02247 10.5471 4.80727 11.0659 4.42462 11.4486C4.04197 11.8312 3.52314 12.0464 2.982 12.0469Z" fill="black"/>
<path fill-rule="evenodd" clip-rule="evenodd" d="M12.9689 7.06494C12.1885 7.06785 11.4411 7.38035 10.8908 7.93381C10.3405 8.48727 10.0323 9.23648 10.0339 10.0169C10.0323 10.7973 10.3405 11.5464 10.8909 12.0997C11.4412 12.653 12.1886 12.9653 12.9689 12.9679C14.5849 12.9679 15.9009 11.6439 15.9009 10.0169C15.9009 8.38994 14.5859 7.06494 12.9689 7.06494ZM12.9329 12.0299C12.3958 12.0297 11.8806 11.8165 11.5003 11.4371C11.12 11.0578 10.9055 10.5431 10.9039 10.0059C10.9205 9.47884 11.1415 8.97887 11.5202 8.61187C11.8989 8.24487 12.4056 8.03965 12.9329 8.03965C13.4603 8.03965 13.967 8.24487 14.3457 8.61187C14.7244 8.97887 14.9454 9.47884 14.9619 10.0059C14.9611 10.5434 14.747 11.0585 14.3665 11.438C13.986 11.8176 13.4704 12.0305 12.9329 12.0299Z" fill="black"/>
<path fill-rule="evenodd" clip-rule="evenodd" d="M6.69591 8.944C6.55419 8.944 6.41826 8.88777 6.31796 8.78766C6.21765 8.68754 6.16117 8.55172 6.16091 8.41L5.38791 4.906H4.58891C4.26091 4.906 4.00391 4.524 4.00391 4.038C4.00391 3.544 4.25591 3.171 4.58891 3.171C7.03091 3.495 6.95291 3.897 6.95291 4.031C6.95291 4.526 6.77891 4.906 6.44491 4.906H6.41491L7.09791 7.613L11.5629 5.455L11.2699 4.549C11.2405 4.45802 11.2362 4.36081 11.2573 4.26756C11.2784 4.17431 11.3242 4.08846 11.3899 4.019L12.5049 1.958H10.5889C10.4475 1.958 10.3118 1.90188 10.2117 1.80195C10.1115 1.70202 10.0552 1.56645 10.0549 1.425C10.0549 1.13 10.2939 1 10.5889 1H13.4389C13.6529 1 13.8459 1.018 13.9299 1.213C13.9711 1.30863 13.9834 1.41423 13.9653 1.51677C13.9472 1.61932 13.8994 1.7143 13.8279 1.79L12.3729 4.486L12.9369 6.578C12.9692 6.71017 12.9501 6.84967 12.8835 6.96831C12.8169 7.08695 12.7078 7.17589 12.5781 7.21716C12.4485 7.25843 12.308 7.24894 12.1851 7.19063C12.0622 7.13232 11.966 7.02951 11.9159 6.903L11.7879 6.57C11.7889 6.57 6.74991 8.944 6.69591 8.944Z" fill="black"/>
</svg>
