<svg width="14" height="15" viewBox="0 0 14 15" fill="none" xmlns="http://www.w3.org/2000/svg">
<path d="M11.0652 0.500124C10.9729 0.502396 10.8812 0.514719 10.7916 0.536874L1.31249 3.03352C0.93781 3.13272 0.606232 3.35256 0.369 3.65906C0.131767 3.96556 0.00208666 4.34167 0 4.72925V12.75C0 13.7096 0.79041 14.5 1.74998 14.5H12.2499C13.2095 14.5 13.9999 13.7096 13.9999 12.75V5.16675C13.9999 4.20717 13.2095 3.41676 12.2499 3.41676H4.44788L11.0832 1.66678V2.83344H12.2499V1.66678C12.2499 1.01054 11.6916 0.490791 11.0652 0.500124ZM1.74998 4.58342H12.2499C12.5801 4.58342 12.8332 4.83659 12.8332 5.16675V12.75C12.8332 13.0802 12.5801 13.3333 12.2499 13.3333H1.74998C1.41982 13.3333 1.16666 13.0802 1.16666 12.75V5.16675C1.16666 4.83659 1.41982 4.58342 1.74998 4.58342ZM10.7916 8.08339C10.5595 8.08339 10.337 8.17558 10.1729 8.33967C10.0088 8.50376 9.91658 8.72632 9.91658 8.95838C9.91658 9.19044 10.0088 9.413 10.1729 9.5771C10.337 9.74119 10.5595 9.83337 10.7916 9.83337C11.0236 9.83337 11.2462 9.74119 11.4103 9.5771C11.5744 9.413 11.6666 9.19044 11.6666 8.95838C11.6666 8.72632 11.5744 8.50376 11.4103 8.33967C11.2462 8.17558 11.0236 8.08339 10.7916 8.08339Z" fill="black"/>
</svg>
