<svg width="19" height="20" viewBox="0 0 19 20" fill="none" xmlns="http://www.w3.org/2000/svg">
<path d="M2 10.9998V18.9998H9V10.9998H2ZM10 10.9998V18.9998H17V10.9998H10ZM18 10.9998V19.9998H1V10.9998H0V4.99976H3.035L3 4.49976C2.99973 3.73443 3.25033 2.9901 3.71341 2.38077C4.1765 1.77144 4.82654 1.33069 5.564 1.12602C6.30145 0.921343 7.08567 0.964031 7.79655 1.24754C8.50743 1.53106 9.10579 2.03976 9.5 2.69576C9.89421 2.03976 10.4926 1.53106 11.2034 1.24754C11.9143 0.964031 12.6985 0.921343 13.436 1.12602C14.1735 1.33069 14.8235 1.77144 15.2866 2.38077C15.7497 2.9901 16.0003 3.73443 16 4.49976L15.965 4.99976H19V10.9998H18ZM1 5.99976V9.99976H9V5.99976H1ZM18 9.99976V5.99976H10V9.99976H18ZM14.95 4.99976L15 4.49976C15 3.83672 14.7366 3.20083 14.2678 2.73199C13.7989 2.26315 13.163 1.99976 12.5 1.99976C11.837 1.99976 11.2011 2.26315 10.7322 2.73199C10.2634 3.20083 10 3.83672 10 4.49976V4.99976H14.95ZM9 4.99976V4.49976C9 3.83672 8.73661 3.20083 8.26777 2.73199C7.79893 2.26315 7.16304 1.99976 6.5 1.99976C5.83696 1.99976 5.20107 2.26315 4.73223 2.73199C4.26339 3.20083 4 3.83672 4 4.49976L4.05 4.99976H9Z" fill="black"/>
</svg>
