<svg width="146" height="32" viewBox="0 0 146 32" fill="none" xmlns="http://www.w3.org/2000/svg">
<path d="M14.22 25H10.368L9.54 20.104H4.788L3.96 25H0.108L5.004 0.987998H9.324L14.22 25ZM9.108 16.792L7.164 5.272L5.22 16.792H9.108ZM22.8758 25.432C22.2038 25.432 21.5558 25.204 20.9318 24.748C20.3318 24.292 19.8638 23.62 19.5278 22.732V31.624H16.1438V7.612H19.5278V9.844C19.8878 9.004 20.3798 8.356 21.0038 7.9C21.6278 7.42 22.2518 7.18 22.8758 7.18C24.5078 7.18 25.7438 7.996 26.5838 9.628C27.4238 11.26 27.8438 13.48 27.8438 16.288C27.8438 19.072 27.4238 21.292 26.5838 22.948C25.7438 24.604 24.5078 25.432 22.8758 25.432ZM21.8318 22.444C23.5118 22.444 24.3518 20.392 24.3518 16.288C24.3518 12.208 23.5118 10.168 21.8318 10.168C21.3518 10.168 20.8958 10.408 20.4638 10.888C20.0318 11.344 19.7198 11.908 19.5278 12.58V19.996C19.7438 20.668 20.0558 21.244 20.4638 21.724C20.8958 22.204 21.3518 22.444 21.8318 22.444ZM42.4688 25H38.7968L35.9168 17.656L34.1528 20.788V25H30.7688V7.612H34.1528V16.324L38.7248 7.612H42.3968L38.1488 15.352L42.4688 25ZM55.3483 25H51.9643V23.38C51.5803 24.028 51.0523 24.532 50.3803 24.892C49.7323 25.252 49.0843 25.432 48.4363 25.432C47.0683 25.432 45.9523 24.904 45.0883 23.848C44.2483 22.792 43.8283 21.388 43.8283 19.636C43.8283 17.908 44.2483 16.528 45.0883 15.496C45.9523 14.464 47.0683 13.948 48.4363 13.948C49.0843 13.948 49.7443 14.116 50.4163 14.452C51.0883 14.788 51.6043 15.268 51.9643 15.892V13.48C51.9643 11.2 51.0763 10.06 49.3003 10.06C48.0763 10.06 46.9123 10.648 45.8083 11.824L44.5123 9.448C45.9043 7.936 47.7163 7.18 49.9483 7.18C53.5483 7.18 55.3483 9.04 55.3483 12.76V25ZM49.5523 23.092C50.0323 23.092 50.4883 22.912 50.9203 22.552C51.3523 22.168 51.7003 21.664 51.9643 21.04V18.412C51.7003 17.788 51.3523 17.284 50.9203 16.9C50.4883 16.516 50.0323 16.324 49.5523 16.324C48.7843 16.324 48.1963 16.648 47.7883 17.296C47.4043 17.92 47.2123 18.724 47.2123 19.708C47.2123 20.692 47.4043 21.508 47.7883 22.156C48.1963 22.78 48.7843 23.092 49.5523 23.092ZM62.3481 25H58.9641V7.612H62.3481V14.452H66.4521V7.612H69.8361V25H66.4521V17.404H62.3481V25ZM76.7964 25H73.4484V7.612H76.8324V17.764L80.7564 7.612H84.3204V25H80.9364V14.488L76.7964 25ZM93.0448 25H89.6608V10.564H86.7808V7.612H95.9248V10.564H93.0448V25ZM101.146 25C100.93 25.216 100.654 25.324 100.318 25.324C99.9822 25.324 99.6942 25.216 99.4542 25C99.2382 24.76 99.1302 24.472 99.1302 24.136C99.1302 23.824 99.2502 23.56 99.4902 23.344C99.7302 23.104 100.006 22.984 100.318 22.984C100.63 22.984 100.906 23.104 101.146 23.344C101.386 23.56 101.506 23.824 101.506 24.136C101.506 24.472 101.386 24.76 101.146 25ZM120.683 25H113.123V0.987998H120.683V2.068H114.275V12.112H120.431V13.192H114.275V23.92H120.683V25ZM123.17 29.428V24.1C123.962 24.004 124.574 23.476 125.006 22.516C125.462 21.532 125.81 19.564 126.05 16.612L126.806 7.612H132.386V24.028H134.546V29.428H133.466V25H124.25V29.428H123.17ZM127.814 8.584L127.13 16.828C126.794 20.74 126.146 23.14 125.186 24.028H131.306V8.584H127.814ZM145.675 25H144.595V23.092C143.851 24.652 142.795 25.432 141.427 25.432C140.131 25.432 139.099 24.892 138.331 23.812C137.563 22.732 137.179 21.34 137.179 19.636C137.179 17.932 137.563 16.54 138.331 15.46C139.099 14.38 140.131 13.84 141.427 13.84C142.819 13.84 143.875 14.596 144.595 16.108V12.472C144.595 10.984 144.391 9.892 143.983 9.196C143.575 8.5 142.855 8.152 141.823 8.152C140.599 8.152 139.483 8.8 138.475 10.096L137.827 9.268C139.123 7.876 140.455 7.18 141.823 7.18C143.239 7.18 144.235 7.6 144.811 8.44C145.387 9.28 145.675 10.612 145.675 12.436V25ZM141.427 24.46C142.939 24.46 143.995 23.584 144.595 21.832V17.512C143.995 15.712 142.939 14.812 141.427 14.812C140.419 14.812 139.651 15.28 139.123 16.216C138.619 17.152 138.367 18.292 138.367 19.636C138.367 20.98 138.619 22.12 139.123 23.056C139.651 23.992 140.419 24.46 141.427 24.46Z" fill="#050505"/>
</svg>
